<svg xmlns="http://www.w3.org/2000/svg" version="1.1" xmlns:xlink="http://www.w3.org/1999/xlink" xmlns:svgjs="http://svgjs.dev/svgjs" viewBox="0 0 800 800" opacity="0.1"><g stroke-width="1.5" stroke="hsl(0, 0%, 100%)" fill="none"><rect width="825" height="825" x="-12.5" y="-12.5" transform="rotate(287.5, 400, 400)"></rect><rect width="792" height="792" x="4" y="4" transform="rotate(276, 400, 400)"></rect><rect width="759" height="759" x="20.5" y="20.5" transform="rotate(264.5, 400, 400)"></rect><rect width="726" height="726" x="37" y="37" transform="rotate(253, 400, 400)"></rect><rect width="693" height="693" x="53.5" y="53.5" transform="rotate(241.5, 400, 400)"></rect><rect width="660" height="660" x="70" y="70" transform="rotate(230, 400, 400)"></rect><rect width="627" height="627" x="86.5" y="86.5" transform="rotate(218.5, 400, 400)"></rect><rect width="594" height="594" x="103" y="103" transform="rotate(207, 400, 400)"></rect><rect width="561" height="561" x="119.5" y="119.5" transform="rotate(195.5, 400, 400)"></rect><rect width="528" height="528" x="136" y="136" transform="rotate(184, 400, 400)"></rect><rect width="495" height="495" x="152.5" y="152.5" transform="rotate(172.5, 400, 400)"></rect><rect width="462" height="462" x="169" y="169" transform="rotate(161, 400, 400)"></rect><rect width="429" height="429" x="185.5" y="185.5" transform="rotate(149.5, 400, 400)"></rect><rect width="396" height="396" x="202" y="202" transform="rotate(138, 400, 400)"></rect><rect width="363" height="363" x="218.5" y="218.5" transform="rotate(126.5, 400, 400)"></rect><rect width="330" height="330" x="235" y="235" transform="rotate(115, 400, 400)"></rect><rect width="297" height="297" x="251.5" y="251.5" transform="rotate(103.5, 400, 400)"></rect><rect width="264" height="264" x="268" y="268" transform="rotate(92, 400, 400)"></rect><rect width="231" height="231" x="284.5" y="284.5" transform="rotate(80.5, 400, 400)"></rect><rect width="198" height="198" x="301" y="301" transform="rotate(69, 400, 400)"></rect><rect width="165" height="165" x="317.5" y="317.5" transform="rotate(57.5, 400, 400)"></rect><rect width="132" height="132" x="334" y="334" transform="rotate(46, 400, 400)"></rect><rect width="99" height="99" x="350.5" y="350.5" transform="rotate(34.5, 400, 400)"></rect><rect width="66" height="66" x="367" y="367" transform="rotate(23, 400, 400)"></rect><rect width="33" height="33" x="383.5" y="383.5" transform="rotate(11.5, 400, 400)"></rect></g></svg>